<svg width="30" height="30" viewBox="0 0 30 30" fill="none" xmlns="http://www.w3.org/2000/svg">
<path d="M5 0C4.07812 0 3.33333 0.837891 3.33333 1.875V13.125H8.33333V11.25C8.33333 9.18164 9.82812 7.5 11.6667 7.5H23.3333V1.875C23.3333 0.837891 22.5885 0 21.6667 0H5ZM11.6667 9.375C10.7448 9.375 10 10.2129 10 11.25V13.125H15C16.8385 13.125 18.3333 14.8066 18.3333 16.875V24.375H28.3333C29.2552 24.375 30 23.5371 30 22.5V11.25C30 10.2129 29.2552 9.375 28.3333 9.375H11.6667ZM24.1667 13.125H25.8333C26.2917 13.125 26.6667 13.5469 26.6667 14.0625V15.9375C26.6667 16.4531 26.2917 16.875 25.8333 16.875H24.1667C23.7083 16.875 23.3333 16.4531 23.3333 15.9375V14.0625C23.3333 13.5469 23.7083 13.125 24.1667 13.125ZM1.66667 15C0.744792 15 0 15.8379 0 16.875V17.6367L8.07812 24.3691C8.15104 24.4277 8.23958 24.4629 8.33333 24.4629C8.42708 24.4629 8.51562 24.4277 8.58854 24.3691L16.6667 17.6367V16.875C16.6667 15.8379 15.9219 15 15 15H1.66667ZM16.6667 19.9688L9.58333 25.875C9.22396 26.1738 8.78646 26.3379 8.33333 26.3379C7.88021 26.3379 7.44792 26.1738 7.08333 25.875L0 19.9688V28.125C0 29.1621 0.744792 30 1.66667 30H15C15.9219 30 16.6667 29.1621 16.6667 28.125V19.9688Z" fill="#00474B"/>
</svg>
